<svg width="23" height="22" viewBox="0 0 23 22" fill="none" xmlns="http://www.w3.org/2000/svg">
<path d="M7.11719 11.15C8.01758 13.0094 9.52112 14.5091 11.3828 15.4047C11.5201 15.4697 11.672 15.4979 11.8235 15.4864C11.975 15.4748 12.1209 15.4241 12.2469 15.3391L14.9812 13.5125C15.1021 13.4306 15.2417 13.3806 15.387 13.3672C15.5324 13.3538 15.6788 13.3775 15.8125 13.4359L20.9312 15.6344C21.1062 15.7072 21.2524 15.8355 21.3472 15.9995C21.4421 16.1636 21.4804 16.3542 21.4562 16.5422C21.294 17.8085 20.6759 18.9722 19.7177 19.8158C18.7594 20.6593 17.5266 21.1247 16.25 21.125C12.3049 21.125 8.52139 19.5578 5.73179 16.7682C2.94218 13.9786 1.375 10.1951 1.375 6.25001C1.37529 4.97338 1.84073 3.74059 2.68425 2.78233C3.52776 1.82407 4.69153 1.20599 5.95781 1.04376C6.14576 1.01961 6.33643 1.05792 6.50047 1.15279C6.66451 1.24765 6.79281 1.39381 6.86562 1.56876L9.06406 6.69844C9.12123 6.83007 9.14515 6.97374 9.1337 7.1168C9.12226 7.25985 9.07581 7.39789 8.99844 7.51876L7.17187 10.2969C7.09056 10.4225 7.04283 10.5669 7.03325 10.7163C7.02368 10.8657 7.05258 11.015 7.11719 11.15V11.15Z" stroke="#191C1F" stroke-width="1.5" stroke-linecap="round" stroke-linejoin="round"/>
</svg>